<?xml version="1.0" encoding="UTF-8"?>
<svg id="Lag_1" data-name="Lag 1" xmlns="http://www.w3.org/2000/svg" viewBox="0 0 1920 1080">
  <g>
    <path d="M563.27,344.06c22.92,0,45.73,0,68.44.02,12.41,18.55,16.08,36.12,15.55,53.64-11.44.14-23.09.31-34.99.51-.04,2.88-.14,5.76-.3,8.64,9.53-.22,18.91-.41,28.13-.57-1.15,12.5-3.93,25.04-6.85,37.93-8.44.32-17,.66-25.69,1.04-.46,3.09-.92,6.2-1.38,9.32,11.11-.51,22.02-.97,32.75-1.38-4.25,17.47-8.02,35.77-7.32,55.7-22.73.1-45.51.22-68.35.36v-165.21Z"/>
    <path d="M685.48,418.02c-2.57-23.97-15-47.8-43.58-73.93,14.24.01,28.44.03,42.6.05,14.59,11.5,24.53,22.41,30.83,32.98.09,0,.19,0,.29,0,.1-10.54-3.52-21.37-13.33-32.96,12.8.02,25.57.04,38.31.06,25.09,27.77,11.68,50.37-6.67,74.56.37,26.47-12.34,53.42,6.14,89.8-14.13.03-28.26.06-42.41.1-6.19-16.15-7.15-30.57-6.77-44.07-.08,0-.17,0-.25,0-7.89,13.68-13.85,28.3-15.99,44.13-12.8.04-25.62.09-38.45.14,7.85-33.75,30.47-63.37,49.27-90.87Z"/>
    <path d="M750.8,344.24c11.79.02,23.55.04,35.3.07,10.65-.08,28.26,3.34,46.29,12.63,17.21,9.18,34.85,24.22,26.67,44.98-8.28,18.57-23.36,31.72-35.86,40.58-13.02,8.8-23.47,13.32-34.56,13.21-.39,0-.78,0-1.18,0-7.08,15.54-10.65,32.64-3.26,52.82-12.59.01-25.19.03-37.79.05-18.41-69.89,77.74-105.54,4.38-164.33ZM810.54,416.76c6.22.06,12.41-5.34,15.01-12.21,2.63-6.87-.2-12.51-6.64-12.62-.34,0-.69-.01-1.03-.02-.65,8.41-3.94,16.58-8.34,24.84.33,0,.66,0,.99.01Z"/>
    <path d="M841.66,344.42c22.24.05,44.42.09,66.56.14,26.03,21.9,28.19,39.56,21.47,56.03-8.63-.24-17.33-.47-26.11-.69-.97,2.65-2.17,5.27-3.56,7.87,7,.18,13.95.37,20.85.56-6.46,11.48-16.22,22.61-23.94,34.47-6.73-.15-13.48-.3-20.26-.43-1.84,2.85-3.59,5.73-5.16,8.68,8.94.15,17.84.32,26.73.5-8.53,16.37-10.97,34.5,5.56,56.98-22.6-.02-45.19-.03-67.79-.03-37.16-71.41,86.56-101.5,5.64-164.07Z"/>
    <path d="M919.43,344.58c12.61.02,25.21.05,37.8.07,9.04-.04,24.38,2.77,39.36,11.76,14.28,8.82,28.19,23.82,18.19,44.02-8.28,16.25-22.77,26.77-33.94,34.21-9.7,21.48-14.49,43.85,24.1,74.02-13.26-.02-26.51-.05-39.76-.06-25.71-22.75-28.45-41.05-23.87-57.75-.15,0-.3,0-.45-.01-8.63,16.6-10.16,34.85,10.11,57.74-12.6-.02-25.2-.03-37.79-.04-54.03-70.58,83.03-97.97,6.25-163.95ZM966.75,417.6c5.19.15,11.34-4.69,15-10.98,3.69-6.29,2.72-11.46-2.56-11.6-.84-.02-1.68-.04-2.52-.07-2.44,7.81-7.06,15.24-12.37,22.57.82.03,1.64.05,2.45.08Z"/>
    <path d="M1015.27,344.74c22.04.03,44.05.05,66.06.07,16.26,23.74,12.15,42.68,2.4,59.8-8.37-.16-16.71-.34-25.05-.54-1.53,2.74-3.22,5.43-5.01,8.08,6.7.17,13.41.34,20.14.49-7.94,11.79-17.58,22.91-23.58,34.43-6.94-.19-13.82-.39-20.67-.58-1.52,2.75-2.83,5.53-3.88,8.34,9.14.25,18.34.5,27.64.74-5.13,15.74-1.45,32.62,23.7,53.21-22.76-.05-45.46-.09-68.14-.13-71.57-67.65,68.65-94.4,6.39-163.92Z"/>
    <path d="M1092.48,344.82c12.59,0,25.17,0,37.75,0,37.86,71.41-86.59,101.35-5.67,164.07-12.72-.03-25.42-.05-38.1-.08-79.76-64.41,52.23-92.82,6.02-164Z"/>
    <path d="M1141.37,344.83c11.44,0,22.89,0,34.34-.02,20.79,30.3,14.34,53.5,10.62,75.19.12-.07.24-.14.37-.21,12.49-21.6,25.76-45.02,16.26-75.01,11.33-.01,22.66-.03,34-.05,15.82,69.36-74.87,106.11-4.13,164.38-11.67-.02-23.33-.04-34.96-.06-41.97-25.48-51.56-46.63-49.97-67.53-.12.07-.23.13-.35.2-10.09,20.73-11.06,41.44,22.66,67.27-11.48-.02-22.94-.05-34.39-.07-80.84-62.22,40.95-92.69,5.55-164.09Z"/>
    <path d="M1299.4,341.55c10.53.02,21.91,4.93,27.58,11-.36,22.93-6.86,43.54-12.38,63.26-5.45-5.32-12.38-9.78-21.22-9.53-13.23.39-25.08,11.52-30.35,25.71-5.18,14.18,2.09,24.21,17.09,24.18,9.83-.04,20.02-4.39,28.33-10.54-2.5,18.33-.78,36.52,11.33,55.81-3.06,5.65-9.85,10.32-20.75,10.33-13.7.24-41.95-9.72-60.1-24.35-18.73-14.78-27.38-34.22-15.26-56.38,11.69-21.98,26.43-43.84,37.84-60.87,12.16-16.91,20.99-28.99,37.9-28.63Z"/>
    <path d="M1337.8,344.42c22.14-.1,44.32-.21,66.56-.35-.01,18.49-.15,36.92-.29,55.33-11.05.61-21.89,1.16-32.55,1.67-.35,2.96-.71,5.91-1.06,8.85,8.85-.4,17.83-.83,26.96-1.29-.39,13.06-.73,26.07-.83,39.07-10,.28-19.83.53-29.49.75-.11,3.04-.16,6.09-.15,9.13,12.79-.22,25.85-.49,39.19-.8v52.48c-23.53,0-46.95,0-70.27-.03-37.93-55.52,4.12-102.09,1.92-164.83Z"/>
  </g>
  <g>
    <path d="M560.28,514.41c23.01,0,45.91,0,68.71.03,12.46,18.55,16.15,36.12,15.61,53.64-11.48.14-23.19.31-35.13.51-.04,2.88-.14,5.76-.3,8.64,9.57-.22,18.99-.41,28.25-.57-1.15,12.5-3.95,25.04-6.88,37.93-8.47.32-17.06.66-25.79,1.04-.46,3.09-.92,6.2-1.38,9.32,11.16-.51,22.11-.97,32.88-1.38-4.27,17.47-8.05,35.77-7.35,55.7-22.83.1-45.7.22-68.63.36v-165.21Z"/>
    <path d="M682.99,588.37c-2.58-23.97-15.06-47.8-43.76-73.93,14.29.01,28.55.03,42.77.05,14.65,11.5,24.63,22.41,30.95,32.98.1,0,.19,0,.29,0,.1-10.54-3.54-21.37-13.38-32.96,12.85.02,25.67.04,38.47.06,25.19,27.77,11.73,50.37-6.69,74.55.37,26.47-12.39,53.42,6.17,89.8-14.18.03-28.38.06-42.58.1-6.21-16.15-7.18-30.57-6.79-44.07-.08,0-.17,0-.25,0-7.92,13.68-13.91,28.3-16.06,44.13-12.86.04-25.72.09-38.61.14,7.88-33.75,30.59-63.37,49.47-90.87Z"/>
    <path d="M748.57,514.59c11.83.02,23.65.04,35.45.07,10.69-.08,28.37,3.34,46.48,12.63,17.28,9.18,34.99,24.22,26.78,44.97-8.32,18.57-23.46,31.72-36.01,40.58-13.08,8.8-23.56,13.32-34.7,13.21-.39,0-.79,0-1.18,0-7.11,15.54-10.69,32.64-3.28,52.82-12.64.01-25.29.03-37.94.05-18.48-69.89,78.06-105.54,4.4-164.33ZM808.55,587.11c6.25.06,12.46-5.34,15.07-12.21,2.64-6.87-.2-12.51-6.66-12.62-.34,0-.69-.01-1.03-.02-.65,8.41-3.96,16.58-8.37,24.84.33,0,.66,0,.99.01Z"/>
    <path d="M839.81,514.77c22.33.05,44.6.09,66.83.14,26.14,21.9,28.31,39.56,21.56,56.03-8.66-.24-17.4-.47-26.22-.69-.97,2.65-2.18,5.27-3.57,7.87,7.03.18,14,.37,20.93.56-6.48,11.48-16.29,22.61-24.04,34.47-6.76-.15-13.53-.3-20.34-.43-1.85,2.85-3.6,5.73-5.18,8.68,8.97.15,17.91.32,26.83.5-8.57,16.37-11.02,34.5,5.58,56.98-22.69-.02-45.38-.03-68.06-.03-37.32-71.41,86.91-101.5,5.66-164.07Z"/>
    <path d="M917.9,514.93c12.66.03,25.31.05,37.95.07,9.07-.04,24.48,2.77,39.52,11.76,14.34,8.82,28.31,23.82,18.27,44.02-8.32,16.25-22.87,26.77-34.08,34.21-9.74,21.48-14.55,43.85,24.2,74.02-13.32-.02-26.62-.04-39.92-.06-25.82-22.75-28.57-41.05-23.97-57.75-.15,0-.3,0-.45-.01-8.67,16.6-10.2,34.85,10.15,57.74-12.65-.02-25.3-.03-37.94-.04-54.26-70.58,83.37-97.97,6.27-163.95ZM965.41,587.95c5.21.15,11.38-4.69,15.06-10.98,3.7-6.29,2.74-11.46-2.57-11.6-.84-.02-1.69-.04-2.53-.07-2.45,7.81-7.09,15.24-12.42,22.57.82.03,1.64.05,2.46.08Z"/>
    <path d="M1014.14,515.1c22.12.03,44.23.05,66.32.07,16.33,23.74,12.19,42.68,2.41,59.8-8.4-.16-16.78-.34-25.15-.54-1.53,2.74-3.23,5.43-5.03,8.08,6.72.17,13.46.34,20.22.49-7.97,11.79-17.65,22.91-23.68,34.43-6.96-.19-13.88-.39-20.76-.58-1.52,2.75-2.85,5.53-3.89,8.34,9.17.25,18.42.5,27.75.74-5.15,15.74-1.46,32.62,23.79,53.22-22.85-.05-45.65-.09-68.41-.13-71.87-67.65,68.93-94.4,6.42-163.92Z"/>
    <path d="M1091.66,515.17c12.64,0,25.27.01,37.91,0,38.02,71.41-86.95,101.35-5.69,164.07-12.77-.03-25.52-.05-38.25-.08-80.09-64.41,52.45-92.82,6.04-164Z"/>
    <path d="M1140.76,515.18c11.49,0,22.98,0,34.48-.02,20.87,30.3,14.4,53.5,10.67,75.19.12-.07.24-.14.37-.21,12.55-21.6,25.87-45.02,16.33-75.01,11.37-.01,22.75-.03,34.13-.05,15.89,69.36-75.18,106.11-4.15,164.38-11.72-.02-23.42-.04-35.1-.06-42.14-25.48-51.78-46.63-50.18-67.53-.12.07-.23.13-.35.2-10.13,20.73-11.11,41.44,22.75,67.27-11.52-.02-23.03-.05-34.52-.07-81.17-62.22,41.12-92.69,5.57-164.09Z"/>
    <path d="M1299.42,511.9c10.57.02,22,4.93,27.69,11-.36,22.93-6.89,43.54-12.44,63.26-5.48-5.32-12.43-9.78-21.31-9.53-13.28.39-25.18,11.52-30.48,25.71-5.2,14.18,2.1,24.21,17.15,24.18,9.87-.04,20.1-4.39,28.45-10.54-2.51,18.33-.78,36.52,11.37,55.81-3.07,5.65-9.89,10.32-20.83,10.33-13.76.24-42.12-9.72-60.35-24.35-18.81-14.78-27.49-34.22-15.32-56.38,11.74-21.98,26.53-43.84,38-60.87,12.21-16.91,21.08-28.99,38.05-28.63Z"/>
    <path d="M1337.99,514.77c22.23-.1,44.5-.21,66.83-.35-.01,18.49-.15,36.92-.29,55.33-11.1.61-21.98,1.16-32.68,1.67-.36,2.96-.71,5.91-1.06,8.85,8.88-.4,17.9-.83,27.07-1.29-.39,13.06-.73,26.07-.83,39.07-10.04.28-19.91.53-29.61.75-.11,3.04-.16,6.09-.15,9.13,12.84-.22,25.95-.49,39.35-.8v52.49c-23.63,0-47.14,0-70.55-.03-38.09-55.52,4.13-102.09,1.92-164.83Z"/>
  </g>
  <g>
    <path d="M565.91,5.99c22.92,0,45.73,0,68.44.03,12.41,18.55,16.08,36.12,15.55,53.64-11.44.14-23.09.31-34.99.51-.04,2.88-.14,5.76-.3,8.64,9.53-.22,18.91-.41,28.13-.57-1.15,12.5-3.93,25.04-6.85,37.93-8.44.32-17,.66-25.69,1.04-.46,3.09-.92,6.2-1.38,9.32,11.11-.51,22.02-.97,32.75-1.38-4.25,17.47-8.02,35.77-7.32,55.7-22.73.1-45.51.22-68.35.36V5.99Z"/>
    <path d="M688.12,79.95c-2.57-23.97-15-47.8-43.58-73.93,14.24.01,28.44.03,42.6.05,14.59,11.5,24.53,22.41,30.83,32.98.09,0,.19,0,.29,0,.1-10.54-3.52-21.37-13.33-32.96,12.8.02,25.57.04,38.31.06,25.09,27.77,11.68,50.37-6.67,74.56.37,26.47-12.34,53.42,6.14,89.8-14.13.03-28.26.06-42.41.1-6.19-16.15-7.15-30.57-6.77-44.07-.08,0-.17,0-.25,0-7.89,13.68-13.85,28.3-15.99,44.13-12.8.04-25.62.09-38.45.14,7.85-33.75,30.47-63.37,49.27-90.87Z"/>
    <path d="M753.43,6.17c11.79.02,23.55.04,35.3.07,10.65-.08,28.26,3.34,46.29,12.63,17.21,9.18,34.85,24.22,26.67,44.97-8.28,18.57-23.36,31.72-35.86,40.58-13.02,8.8-23.47,13.32-34.56,13.21-.39,0-.78,0-1.18,0-7.08,15.54-10.65,32.64-3.26,52.82-12.59.01-25.19.03-37.79.05-18.41-69.89,77.74-105.54,4.38-164.33ZM813.17,78.69c6.22.06,12.41-5.34,15.01-12.21,2.63-6.87-.2-12.51-6.64-12.62-.34,0-.69-.01-1.03-.02-.65,8.41-3.94,16.58-8.34,24.84.33,0,.66,0,.99.01Z"/>
    <path d="M844.29,6.35c22.24.05,44.42.09,66.56.14,26.03,21.9,28.19,39.56,21.47,56.03-8.63-.24-17.33-.47-26.11-.69-.97,2.65-2.17,5.27-3.56,7.87,7,.18,13.95.37,20.85.56-6.46,11.48-16.22,22.61-23.94,34.47-6.73-.15-13.48-.3-20.26-.43-1.84,2.85-3.59,5.73-5.16,8.68,8.94.15,17.84.32,26.73.5-8.53,16.37-10.97,34.5,5.56,56.98-22.6-.02-45.19-.03-67.79-.03-37.16-71.41,86.56-101.5,5.64-164.07Z"/>
    <path d="M922.06,6.51c12.61.02,25.21.05,37.8.07,9.04-.04,24.38,2.77,39.36,11.76,14.28,8.82,28.19,23.82,18.19,44.02-8.28,16.25-22.77,26.77-33.94,34.21-9.7,21.48-14.49,43.85,24.1,74.02-13.26-.02-26.51-.04-39.76-.06-25.71-22.75-28.45-41.05-23.87-57.75-.15,0-.3,0-.45-.01-8.63,16.6-10.16,34.85,10.11,57.74-12.6-.02-25.2-.03-37.79-.04-54.03-70.58,83.03-97.97,6.25-163.95ZM969.38,79.53c5.19.15,11.34-4.69,15-10.98,3.69-6.29,2.72-11.46-2.56-11.6-.84-.02-1.68-.04-2.52-.07-2.44,7.81-7.07,15.24-12.37,22.57.82.03,1.64.05,2.45.08Z"/>
    <path d="M1017.91,6.68c22.04.03,44.05.05,66.06.07,16.26,23.74,12.15,42.68,2.4,59.8-8.37-.16-16.71-.34-25.05-.54-1.53,2.74-3.22,5.43-5.01,8.08,6.7.17,13.41.34,20.14.49-7.94,11.79-17.58,22.91-23.58,34.43-6.94-.19-13.82-.39-20.67-.58-1.52,2.75-2.83,5.53-3.88,8.34,9.14.25,18.34.5,27.64.74-5.13,15.74-1.45,32.62,23.7,53.21-22.76-.05-45.46-.09-68.14-.13-71.57-67.65,68.65-94.4,6.39-163.92Z"/>
    <path d="M1095.11,6.75c12.59,0,25.17,0,37.75,0,37.86,71.41-86.59,101.35-5.67,164.07-12.72-.03-25.42-.05-38.1-.08-79.76-64.41,52.23-92.82,6.02-164Z"/>
    <path d="M1144.01,6.76c11.44,0,22.89,0,34.34-.02,20.79,30.3,14.34,53.5,10.62,75.19.12-.07.24-.14.37-.21,12.49-21.6,25.76-45.02,16.26-75.01,11.33-.01,22.66-.03,34-.05,15.82,69.36-74.87,106.11-4.13,164.38-11.67-.02-23.33-.04-34.96-.06-41.97-25.48-51.56-46.63-49.97-67.53-.12.07-.23.13-.35.2-10.09,20.73-11.06,41.44,22.66,67.27-11.48-.02-22.94-.05-34.39-.07-80.84-62.22,40.95-92.69,5.55-164.09Z"/>
    <path d="M1302.03,3.48c10.53.02,21.91,4.93,27.58,11-.36,22.93-6.86,43.54-12.38,63.26-5.45-5.32-12.38-9.78-21.22-9.53-13.23.39-25.08,11.52-30.35,25.71-5.18,14.18,2.09,24.21,17.09,24.18,9.83-.04,20.02-4.39,28.33-10.54-2.5,18.33-.78,36.52,11.33,55.81-3.06,5.65-9.85,10.32-20.75,10.33-13.7.24-41.95-9.72-60.1-24.35-18.74-14.78-27.38-34.22-15.26-56.38,11.69-21.98,26.43-43.84,37.84-60.87,12.16-16.91,20.99-28.99,37.9-28.63Z"/>
    <path d="M1340.43,6.35c22.14-.1,44.32-.21,66.56-.35-.01,18.49-.15,36.92-.29,55.33-11.05.61-21.89,1.16-32.55,1.67-.35,2.96-.71,5.91-1.06,8.85,8.85-.4,17.83-.83,26.96-1.29-.39,13.06-.73,26.07-.83,39.07-10,.28-19.83.53-29.49.75-.11,3.04-.16,6.09-.15,9.13,12.79-.22,25.85-.49,39.19-.8v52.48c-23.53,0-46.95,0-70.27-.03-37.93-55.52,4.11-102.09,1.92-164.83Z"/>
  </g>
  <g>
    <path d="M562.91,176.34c23.01,0,45.91,0,68.71.03,12.46,18.55,16.15,36.12,15.61,53.64-11.48.14-23.19.31-35.13.51-.04,2.88-.14,5.76-.3,8.64,9.57-.22,18.99-.41,28.25-.57-1.15,12.5-3.95,25.04-6.88,37.93-8.47.32-17.06.66-25.79,1.04-.46,3.09-.92,6.2-1.38,9.32,11.16-.51,22.11-.97,32.88-1.38-4.27,17.47-8.05,35.77-7.35,55.7-22.83.1-45.7.22-68.63.36v-165.21Z"/>
    <path d="M685.62,250.3c-2.58-23.97-15.06-47.8-43.76-73.93,14.29.01,28.55.03,42.77.05,14.65,11.5,24.63,22.41,30.95,32.98.1,0,.19,0,.29,0,.11-10.54-3.54-21.37-13.38-32.96,12.85.02,25.67.04,38.47.06,25.19,27.77,11.73,50.37-6.69,74.55.37,26.47-12.39,53.42,6.17,89.8-14.18.03-28.38.06-42.58.1-6.21-16.15-7.18-30.57-6.79-44.07-.08,0-.17,0-.25,0-7.92,13.68-13.91,28.3-16.06,44.13-12.86.04-25.72.09-38.61.14,7.88-33.75,30.59-63.37,49.47-90.87Z"/>
    <path d="M751.21,176.53c11.83.02,23.65.04,35.45.07,10.69-.08,28.37,3.34,46.48,12.63,17.28,9.18,34.99,24.22,26.78,44.97-8.32,18.57-23.46,31.72-36.01,40.58-13.08,8.8-23.56,13.32-34.7,13.21-.39,0-.79,0-1.18,0-7.11,15.54-10.69,32.64-3.28,52.82-12.64.01-25.29.03-37.94.05-18.48-69.89,78.06-105.54,4.4-164.33ZM811.19,249.04c6.25.06,12.46-5.34,15.07-12.21,2.64-6.87-.2-12.51-6.66-12.62-.34,0-.69-.01-1.03-.02-.65,8.41-3.96,16.58-8.37,24.84.33,0,.66,0,.99.01Z"/>
    <path d="M842.44,176.7c22.33.05,44.6.09,66.83.14,26.14,21.9,28.31,39.56,21.56,56.03-8.66-.24-17.4-.47-26.22-.69-.97,2.65-2.18,5.27-3.57,7.87,7.03.18,14,.37,20.93.56-6.48,11.48-16.29,22.61-24.04,34.47-6.76-.15-13.53-.3-20.34-.43-1.85,2.85-3.6,5.73-5.18,8.68,8.97.15,17.91.32,26.83.5-8.57,16.37-11.02,34.5,5.58,56.98-22.69-.02-45.38-.03-68.06-.03-37.32-71.41,86.91-101.5,5.66-164.07Z"/>
    <path d="M920.53,176.86c12.66.02,25.31.05,37.95.07,9.08-.04,24.48,2.77,39.52,11.76,14.34,8.82,28.31,23.82,18.27,44.02-8.31,16.25-22.87,26.77-34.08,34.21-9.74,21.48-14.55,43.85,24.2,74.02-13.32-.02-26.62-.04-39.92-.06-25.82-22.75-28.57-41.05-23.97-57.75-.15,0-.3,0-.45-.01-8.67,16.6-10.2,34.85,10.15,57.74-12.65-.02-25.3-.03-37.94-.04-54.26-70.58,83.37-97.97,6.27-163.95ZM968.04,249.88c5.21.16,11.38-4.69,15.06-10.98,3.7-6.29,2.74-11.46-2.57-11.6-.84-.02-1.69-.04-2.53-.07-2.45,7.81-7.09,15.24-12.42,22.57.82.03,1.64.05,2.46.08Z"/>
    <path d="M1016.77,177.03c22.13.03,44.23.05,66.32.07,16.33,23.74,12.2,42.68,2.41,59.8-8.4-.16-16.78-.34-25.15-.54-1.53,2.74-3.23,5.43-5.03,8.08,6.72.17,13.46.34,20.22.49-7.97,11.79-17.65,22.91-23.68,34.43-6.96-.19-13.88-.39-20.76-.58-1.52,2.75-2.85,5.53-3.89,8.34,9.17.25,18.42.5,27.75.74-5.15,15.74-1.46,32.62,23.79,53.22-22.85-.05-45.65-.09-68.41-.13-71.87-67.65,68.93-94.4,6.42-163.92Z"/>
    <path d="M1094.29,177.1c12.64,0,25.27,0,37.91,0,38.02,71.41-86.95,101.35-5.69,164.07-12.77-.03-25.52-.05-38.25-.08-80.09-64.41,52.45-92.82,6.04-164Z"/>
    <path d="M1143.39,177.11c11.49,0,22.98,0,34.48-.02,20.87,30.3,14.4,53.5,10.67,75.19.12-.07.24-.14.37-.21,12.55-21.6,25.87-45.02,16.33-75.01,11.37-.01,22.75-.03,34.13-.05,15.89,69.36-75.18,106.11-4.15,164.38-11.72-.02-23.42-.04-35.1-.06-42.14-25.48-51.78-46.63-50.18-67.53-.12.07-.23.13-.35.2-10.13,20.73-11.11,41.44,22.75,67.27-11.52-.02-23.03-.05-34.52-.07-81.17-62.22,41.12-92.69,5.57-164.09Z"/>
    <path d="M1302.06,173.83c10.57.02,22,4.93,27.69,11-.36,22.93-6.89,43.54-12.44,63.26-5.48-5.32-12.43-9.78-21.31-9.53-13.28.39-25.18,11.52-30.48,25.71-5.21,14.18,2.1,24.21,17.15,24.18,9.87-.04,20.1-4.39,28.45-10.54-2.51,18.33-.78,36.52,11.37,55.81-3.08,5.65-9.89,10.32-20.83,10.33-13.76.24-42.12-9.72-60.35-24.35-18.81-14.78-27.49-34.22-15.32-56.38,11.74-21.98,26.53-43.84,38-60.87,12.2-16.91,21.08-28.99,38.06-28.63Z"/>
    <path d="M1340.62,176.7c22.23-.1,44.5-.21,66.83-.35-.01,18.49-.15,36.92-.29,55.33-11.1.61-21.98,1.16-32.68,1.67-.36,2.96-.71,5.91-1.06,8.85,8.88-.4,17.9-.83,27.07-1.29-.39,13.06-.73,26.07-.83,39.07-10.04.28-19.91.53-29.61.75-.11,3.04-.16,6.09-.15,9.13,12.84-.22,25.95-.49,39.35-.8v52.49c-23.63,0-47.14,0-70.55-.03-38.09-55.52,4.13-102.09,1.92-164.83Z"/>
  </g>
  <g>
    <path d="M556.97,681.97c22.92,0,45.73,0,68.44.02,12.41,18.55,16.08,36.12,15.55,53.64-11.44.14-23.09.31-34.99.51-.04,2.88-.14,5.76-.3,8.64,9.53-.22,18.91-.41,28.13-.57-1.15,12.5-3.93,25.04-6.85,37.93-8.44.32-17,.66-25.69,1.04-.46,3.09-.92,6.2-1.38,9.32,11.11-.51,22.02-.97,32.75-1.38-4.25,17.47-8.02,35.77-7.32,55.7-22.73.1-45.51.22-68.35.36v-165.21Z"/>
    <path d="M679.18,755.93c-2.57-23.97-15-47.8-43.58-73.93,14.24.01,28.44.03,42.6.05,14.59,11.5,24.53,22.41,30.83,32.98.1,0,.19,0,.29,0,.1-10.54-3.52-21.37-13.33-32.96,12.8.02,25.57.04,38.31.06,25.09,27.77,11.68,50.37-6.67,74.56.37,26.47-12.34,53.42,6.14,89.8-14.13.03-28.26.06-42.41.1-6.19-16.15-7.15-30.57-6.77-44.07-.08,0-.17,0-.25,0-7.89,13.68-13.85,28.3-15.99,44.13-12.8.04-25.62.09-38.45.14,7.85-33.75,30.47-63.37,49.27-90.87Z"/>
    <path d="M744.49,682.16c11.79.02,23.55.04,35.3.07,10.65-.08,28.26,3.35,46.29,12.63,17.21,9.18,34.85,24.22,26.67,44.98-8.28,18.57-23.36,31.72-35.86,40.58-13.02,8.8-23.47,13.32-34.55,13.21-.39,0-.78,0-1.18,0-7.08,15.54-10.65,32.64-3.26,52.82-12.59.01-25.19.03-37.79.05-18.41-69.89,77.74-105.54,4.38-164.33ZM804.23,754.67c6.22.06,12.41-5.34,15.01-12.21,2.63-6.87-.2-12.51-6.64-12.62-.34,0-.69-.01-1.03-.02-.65,8.41-3.94,16.58-8.34,24.84.33,0,.66,0,.99.01Z"/>
    <path d="M835.35,682.34c22.24.05,44.42.09,66.56.14,26.03,21.9,28.2,39.56,21.47,56.03-8.63-.24-17.33-.47-26.11-.69-.97,2.65-2.17,5.27-3.56,7.87,7,.18,13.95.37,20.85.56-6.46,11.48-16.22,22.61-23.94,34.47-6.73-.15-13.48-.3-20.26-.43-1.84,2.85-3.59,5.73-5.16,8.68,8.94.15,17.84.32,26.73.5-8.53,16.37-10.97,34.5,5.56,56.98-22.6-.02-45.19-.03-67.79-.03-37.16-71.41,86.56-101.5,5.64-164.08Z"/>
    <path d="M913.12,682.5c12.61.02,25.21.05,37.8.07,9.04-.04,24.38,2.77,39.36,11.76,14.28,8.82,28.19,23.82,18.19,44.02-8.28,16.25-22.77,26.77-33.94,34.21-9.7,21.48-14.49,43.85,24.1,74.02-13.26-.02-26.51-.04-39.76-.06-25.71-22.75-28.45-41.05-23.87-57.75-.15,0-.3,0-.45-.01-8.63,16.6-10.16,34.85,10.11,57.74-12.6-.02-25.2-.03-37.79-.04-54.03-70.58,83.03-97.97,6.24-163.95ZM960.44,755.52c5.19.15,11.34-4.69,15-10.98,3.69-6.29,2.72-11.46-2.56-11.6-.84-.02-1.68-.04-2.52-.07-2.44,7.81-7.06,15.24-12.37,22.57.82.03,1.64.05,2.45.08Z"/>
    <path d="M1008.96,682.66c22.04.03,44.05.05,66.06.07,16.27,23.74,12.15,42.68,2.4,59.8-8.37-.16-16.71-.34-25.05-.54-1.53,2.74-3.22,5.43-5.01,8.08,6.7.17,13.41.34,20.14.49-7.94,11.79-17.58,22.91-23.58,34.43-6.94-.19-13.82-.39-20.67-.58-1.52,2.75-2.83,5.53-3.88,8.34,9.14.25,18.34.5,27.64.74-5.13,15.74-1.45,32.62,23.7,53.22-22.76-.05-45.46-.09-68.14-.13-71.57-67.65,68.65-94.4,6.39-163.92Z"/>
    <path d="M1086.17,682.74c12.59,0,25.17.01,37.75,0,37.87,71.41-86.59,101.35-5.67,164.07-12.72-.03-25.42-.05-38.1-.08-79.76-64.41,52.23-92.82,6.01-164Z"/>
    <path d="M1135.07,682.75c11.44,0,22.89,0,34.34-.02,20.79,30.31,14.34,53.5,10.62,75.19.12-.07.24-.14.37-.21,12.49-21.6,25.76-45.02,16.26-75.01,11.33-.01,22.66-.03,34-.05,15.82,69.36-74.87,106.11-4.13,164.38-11.67-.02-23.33-.04-34.96-.06-41.97-25.48-51.56-46.63-49.97-67.53-.12.07-.23.13-.35.2-10.09,20.73-11.06,41.44,22.66,67.27-11.48-.02-22.94-.05-34.38-.07-80.84-62.22,40.95-92.7,5.55-164.09Z"/>
    <path d="M1293.09,679.46c10.53.02,21.92,4.93,27.58,11-.36,22.93-6.86,43.54-12.38,63.26-5.45-5.32-12.38-9.78-21.22-9.53-13.23.39-25.08,11.52-30.35,25.71-5.18,14.18,2.09,24.21,17.09,24.18,9.83-.04,20.02-4.39,28.33-10.54-2.5,18.33-.78,36.52,11.33,55.81-3.06,5.65-9.85,10.32-20.75,10.33-13.7.24-41.95-9.72-60.1-24.35-18.74-14.78-27.38-34.22-15.26-56.38,11.69-21.98,26.43-43.84,37.85-60.87,12.16-16.91,20.99-28.99,37.9-28.63Z"/>
    <path d="M1331.49,682.33c22.14-.1,44.32-.21,66.56-.35-.01,18.49-.15,36.92-.29,55.33-11.05.61-21.89,1.16-32.55,1.67-.35,2.96-.71,5.91-1.06,8.85,8.85-.4,17.83-.83,26.96-1.29-.39,13.06-.73,26.07-.83,39.07-10,.28-19.83.53-29.49.75-.11,3.04-.16,6.09-.15,9.13,12.79-.22,25.85-.49,39.19-.8,0,17.5,0,34.99,0,52.49-23.53,0-46.95,0-70.27-.03-37.93-55.52,4.12-102.09,1.92-164.83Z"/>
  </g>
  <g>
    <path d="M553.97,852.33c23.01,0,45.91,0,68.71.02,12.46,18.55,16.15,36.12,15.61,53.64-11.48.14-23.19.31-35.13.51-.04,2.88-.14,5.76-.3,8.64,9.57-.22,18.99-.41,28.25-.57-1.15,12.5-3.95,25.04-6.88,37.93-8.47.32-17.06.66-25.79,1.04-.46,3.09-.92,6.2-1.38,9.32,11.16-.51,22.11-.97,32.88-1.38-4.27,17.47-8.05,35.77-7.35,55.7-22.83.1-45.7.22-68.63.36v-165.21Z"/>
    <path d="M676.68,926.29c-2.58-23.97-15.06-47.8-43.76-73.93,14.29.01,28.55.03,42.77.05,14.65,11.5,24.63,22.41,30.95,32.98.1,0,.19,0,.29,0,.11-10.54-3.54-21.37-13.38-32.96,12.85.02,25.67.04,38.47.06,25.19,27.77,11.73,50.37-6.69,74.56.37,26.47-12.39,53.42,6.17,89.8-14.18.03-28.38.06-42.58.1-6.22-16.15-7.18-30.57-6.79-44.07-.08,0-.17,0-.25,0-7.92,13.68-13.91,28.3-16.06,44.13-12.86.04-25.72.09-38.61.14,7.88-33.75,30.59-63.37,49.47-90.87Z"/>
    <path d="M742.26,852.51c11.83.02,23.65.04,35.45.07,10.69-.08,28.37,3.34,46.48,12.63,17.29,9.18,34.99,24.22,26.78,44.98-8.32,18.57-23.45,31.72-36.01,40.58-13.08,8.8-23.56,13.32-34.7,13.21-.39,0-.79,0-1.18,0-7.11,15.54-10.69,32.64-3.28,52.82-12.64.01-25.29.03-37.94.05-18.48-69.89,78.06-105.54,4.4-164.33ZM802.24,925.03c6.25.06,12.46-5.34,15.07-12.21,2.64-6.87-.2-12.51-6.66-12.62-.34,0-.69-.01-1.03-.02-.65,8.41-3.96,16.58-8.37,24.84.33,0,.66,0,.99.01Z"/>
    <path d="M833.5,852.69c22.33.05,44.6.09,66.83.14,26.14,21.9,28.31,39.56,21.56,56.03-8.66-.24-17.4-.47-26.22-.69-.97,2.65-2.18,5.27-3.57,7.87,7.03.18,14,.37,20.93.56-6.48,11.48-16.29,22.61-24.04,34.47-6.76-.15-13.53-.3-20.34-.43-1.85,2.85-3.6,5.73-5.18,8.68,8.98.15,17.91.32,26.83.5-8.57,16.37-11.02,34.5,5.58,56.98-22.69-.02-45.38-.03-68.06-.03-37.32-71.41,86.91-101.5,5.66-164.08Z"/>
    <path d="M911.59,852.85c12.66.02,25.31.05,37.95.07,9.07-.04,24.48,2.77,39.52,11.76,14.34,8.82,28.31,23.82,18.27,44.02-8.32,16.25-22.87,26.77-34.08,34.21-9.74,21.48-14.55,43.85,24.2,74.02-13.32-.02-26.62-.04-39.92-.06-25.82-22.75-28.57-41.05-23.97-57.75-.15,0-.3,0-.45-.01-8.67,16.6-10.2,34.85,10.15,57.74-12.65-.02-25.3-.03-37.94-.04-54.26-70.58,83.37-97.97,6.27-163.95ZM959.1,925.87c5.21.15,11.38-4.69,15.06-10.98,3.7-6.29,2.74-11.46-2.57-11.6-.84-.02-1.69-.04-2.53-.07-2.45,7.81-7.09,15.24-12.42,22.57.82.03,1.64.05,2.46.08Z"/>
    <path d="M1007.83,853.01c22.13.03,44.23.05,66.32.07,16.33,23.74,12.2,42.68,2.41,59.8-8.4-.16-16.78-.34-25.15-.54-1.53,2.74-3.23,5.43-5.03,8.08,6.73.17,13.46.34,20.22.49-7.97,11.79-17.65,22.91-23.68,34.43-6.96-.19-13.88-.39-20.76-.58-1.52,2.75-2.84,5.53-3.89,8.34,9.17.25,18.42.5,27.75.74-5.15,15.74-1.46,32.62,23.79,53.22-22.85-.05-45.65-.09-68.41-.13-71.87-67.65,68.93-94.4,6.42-163.92Z"/>
    <path d="M1085.35,853.09c12.64,0,25.27.01,37.91,0,38.02,71.42-86.95,101.35-5.69,164.07-12.77-.03-25.52-.05-38.25-.08-80.09-64.41,52.45-92.82,6.04-164Z"/>
    <path d="M1134.45,853.1c11.49,0,22.98,0,34.48-.02,20.87,30.31,14.4,53.5,10.67,75.19.12-.07.24-.14.37-.21,12.55-21.6,25.87-45.02,16.33-75.01,11.37-.01,22.75-.03,34.13-.05,15.89,69.36-75.17,106.11-4.15,164.38-11.72-.02-23.42-.04-35.1-.06-42.14-25.48-51.78-46.63-50.18-67.53-.12.07-.23.13-.35.2-10.13,20.73-11.11,41.44,22.75,67.27-11.52-.02-23.03-.05-34.52-.07-81.17-62.22,41.12-92.69,5.57-164.09Z"/>
    <path d="M1293.12,849.82c10.58.02,22,4.93,27.69,11-.36,22.93-6.89,43.54-12.44,63.26-5.48-5.32-12.43-9.78-21.31-9.53-13.28.39-25.18,11.52-30.48,25.71-5.2,14.18,2.1,24.21,17.15,24.18,9.87-.04,20.1-4.39,28.45-10.54-2.51,18.33-.78,36.52,11.37,55.81-3.08,5.65-9.89,10.32-20.83,10.33-13.76.23-42.12-9.72-60.35-24.35-18.81-14.78-27.49-34.22-15.32-56.38,11.74-21.98,26.53-43.84,38-60.87,12.21-16.91,21.08-28.99,38.06-28.63Z"/>
    <path d="M1331.68,852.69c22.23-.1,44.5-.21,66.83-.35-.01,18.49-.15,36.92-.29,55.33-11.1.61-21.98,1.16-32.68,1.67-.36,2.96-.71,5.91-1.06,8.85,8.88-.4,17.9-.83,27.07-1.29-.39,13.06-.73,26.07-.83,39.07-10.04.28-19.91.53-29.61.75-.11,3.04-.16,6.09-.15,9.13,12.84-.22,25.95-.49,39.35-.8v52.49c-23.63,0-47.14,0-70.55-.03-38.09-55.52,4.13-102.09,1.92-164.83Z"/>
  </g>
</svg>