<?xml version="1.0" encoding="UTF-8"?>
<svg id="Lag_1" data-name="Lag 1" xmlns="http://www.w3.org/2000/svg" viewBox="0 0 1920 1080">
  <g>
    <path d="M345.56,427.53c13.98-.14,27.96-.28,41.94-.41-10.7,13.08-13.89,26.16-9.56,39.23.11.04.22.09.33.13,1.47-13.1,10.62-26.28,26.82-39.53,15.29-.14,30.59-.28,45.88-.4-18.7,14.91-29.52,29.72-31.37,44.42,16.03,17.06,43.34,34.26,80.35,51.59-14.37-.31-28.73-.64-43.1-.98-33.24-14.99-58.03-29.89-73.52-44.7-.07.04-.13.09-.2.13,9.47,14.72,28.47,29.45,56.99,44.17-12.78-.31-25.56-.64-38.34-.97-64.9-30.89-83.64-61.78-56.23-92.68Z"/>
    <path d="M460.54,426.48c13.98-.12,27.96-.23,41.94-.34-13.44,20.94-12.29,41.87,3.47,62.81,10.44.09,20.87.19,31.31.27,8.12,11.61,20.38,23.23,36.79,34.84-22.38-.42-44.77-.87-67.15-1.35-53.5-32.08-68.95-64.16-46.35-96.24Z"/>
    <path d="M544.98,425.83c13.98-.1,27.96-.19,41.94-.28-17.3,33.12-5.47,66.24,35.49,99.37-12.78-.21-25.56-.43-38.34-.66-45.12-32.81-58.16-65.61-39.1-98.42Z"/>
    <path d="M599.3,425.47c13.98-.09,27.96-.17,41.94-.25-6.27,13.97-8.13,27.93-5.6,41.9.1.05.21.09.31.14,3.29-14,11.13-28.05,22.88-42.14,15.29-.08,30.59-.16,45.88-.23-13.76,15.74-23.51,31.43-28.14,47.06,12.82,18.09,31.79,36.26,55.31,54.5-14.37-.17-28.73-.35-43.1-.55-21.39-15.9-38.3-31.75-49.87-47.55-.08.05-.16.09-.24.14,5.55,15.72,16.68,31.45,33.38,47.17-12.78-.18-25.56-.38-38.34-.58-39.74-33.21-51.21-66.42-34.43-99.63Z"/>
    <path d="M756.5,424.69c12.85-.05,25.71-.09,38.56-.13,24.94-.09,48.77,6.97,49.19,36.49,1.23,26.52-15.8,37.14-40.72,37.02-.46,0-.92,0-1.38,0,3.39,9.74,7.92,19.49,13.61,29.23-12.78-.1-25.56-.22-38.34-.34-24.15-34.09-31.12-68.17-20.92-102.26ZM796.97,471.94c7.27.01,10.16-3.82,9.86-8.65-.31-4.83-3.84-8.67-11.01-8.67-.38,0-.76,0-1.15,0-.02,5.77.36,11.54,1.15,17.31.38,0,.76,0,1.14,0Z"/>
    <path d="M875.42,424.35c13.37-.03,26.74-.05,40.11-.06,9.41,34.52,26.4,69.1,42.77,103.7-13.81-.03-27.62-.06-41.42-.11-2.26-4.53-4.45-9.07-6.56-13.6-7.39-.02-14.79-.05-22.18-.07,0,4.52.19,9.04.57,13.56-12.69-.06-25.39-.13-38.08-.22-4.37-34.29,6.63-68.7,24.8-103.19ZM880.07,400.36c3.03-10.85,14.32-19.6,24.8-19.65,10.39-.05,16.22,8.66,14.35,19.53-1.94,11.02-11.68,19.62-23.22,19.64-11.65.02-18.99-8.53-15.94-19.52ZM899.09,488.23c-2.43-7.01-4.6-14.02-6.48-21.02-.1,0-.19,0-.29,0-1.17,7-2.01,14.01-2.49,21.01,3.09,0,6.17.01,9.26.02ZM905.06,400.85c.66-3.15-.97-5.86-4.16-5.85-3.19.01-6.04,2.73-6.79,5.88-.78,3.29.88,5.85,4.17,5.85,3.29,0,6.09-2.59,6.78-5.88Z"/>
    <path d="M1060.65,422.68c11.5.01,23.71,2.6,30.55,6.05,1.2,12.73,1.53,25.47.99,38.2-6.99-3.57-15.99-6.58-25.59-6.58-14.63,0-22.54,7.02-22.88,16.63-.32,9.6,6.86,16.48,21.02,16.46,9.32-.01,18.99-2.89,26.49-6.91-1.38,12.16-3.55,24.32-6.53,36.48-7.04,3.6-18.84,6.5-29.81,6.53-30.05.08-52.87-22.59-53.5-53.41.19-30.68,25.13-53.48,59.26-53.45Z"/>
    <path d="M1102.84,424.31c13.98.02,27.96.05,41.94.08,6.06,34.42,1.92,68.84-12.44,103.25-12.78.07-25.56.14-38.34.19,10.19-34.51,13.14-69.02,8.83-103.52Z"/>
    <path d="M1157.16,424.42c13.93.03,27.87.07,41.8.11,20.03.07,53.31,5.42,54.15,32.64-.28,11.01-7.41,18.92-16.35,24.32,3.96,15.15,4.25,30.26-.09,45.31-13.42.14-26.85.27-40.27.38,2.37-11.2,2.61-22.43,1.06-33.67-.19,0-.37,0-.56,0-3.45,11.26-8.43,22.52-14.92,33.78-12.78.1-25.56.19-38.34.27,15.58-34.39,20.08-68.77,13.5-103.16ZM1205.07,469.96c6.7-.01,10.19-3.56,10.44-7.95.26-4.39-2.96-7.8-9.55-7.8-1.05,0-2.1,0-3.15,0,.04,5.25-.26,10.5-.88,15.76,1.05,0,2.09,0,3.14,0Z"/>
    <path d="M1263.28,424.77c13.98.06,27.96.12,41.94.18,5.33,14.1,6.92,28.19,4.76,42.29.09.05.18.09.26.14,8.05-14.15,12.45-28.27,12.57-42.34,15.29.08,30.59.16,45.88.24-.86,15.47-7.78,31-19.67,46.61,4.44,17.97,1.56,35.85-10.2,53.63-14.37.21-28.73.41-43.1.6,9.62-15.8,13.34-31.65,12-47.54-.11.05-.22.09-.32.14-4.72,15.87-14.18,31.74-28.4,47.61-12.78.16-25.56.3-38.34.44,26.1-34,33.64-68,22.62-102Z"/>
    <path d="M1378.25,425.33c13.98.08,27.96.17,41.94.26,11.35,21.33,10.37,42.66-2.93,64,10.44-.08,20.87-.16,31.31-.25-7.87,11.65-19.76,23.31-35.66,34.96-22.38.4-44.77.77-67.16,1.11,37.5-33.36,48.34-66.72,32.49-100.08Z"/>
    <path d="M1462.69,425.88c24.44.17,48.88.36,73.33.56,7.5,10.73,10.78,21.47,9.84,32.2-10.65.01-21.31.02-31.96.03-.14,1.75-.39,3.49-.74,5.24,8.59-.02,17.17-.04,25.76-.06-1.62,7.64-5.35,15.28-11.18,22.93-8.41.08-16.82.15-25.23.22-1.32,1.83-2.76,3.67-4.32,5.5,10.98-.11,21.95-.23,32.93-.35-9.29,10.2-22.41,20.39-39.35,30.59-22.94.49-45.88.95-68.83,1.38,45.88-32.75,59.13-65.49,39.75-98.24Z"/>
    <path d="M1548.4,426.55c12.71.11,25.43.22,38.14.33,20.48,13.59,33.96,27.05,39.28,40.37.11-.04.22-.09.33-.13,4.75-13.32,1.64-26.64-9.35-39.96,12.57.12,25.15.24,37.72.37,27.41,30.89,8.67,61.78-56.23,92.68-11.62.3-23.24.6-34.86.88,16.95-13.14,24.72-26.42,24.45-39.83-.13.04-.25.09-.38.13-9.76,13.45-27.01,26.91-51.73,40.36-11.49.27-22.99.53-34.48.78,54.38-32,70.08-63.99,47.11-95.99Z"/>
  </g>
  <g>
    <path d="M461.27,335.06c11.45.08,22.91.16,34.39.25,6.98,12.52,9.48,25.38,6.45,38.1.07.04.14.08.2.13,7.8-12.78,10.04-25.64,7.8-38.12,12.57.09,25.16.18,37.77.27,1.02,13.72-3.44,27.86-14.61,41.88,2.21,16.14-4.63,31.84-10.28,46.59-13.12.14-26.15.28-39.08.41,6.31-12.94,13.89-26.74,15.02-40.96-.1.04-.19.08-.29.13-6.07,14.2-18.59,28.04-29.75,40.99-11.44.12-22.79.24-34.07.35,11.59-13.74,24.94-28.63,30.54-43.93,6.04-15.29,4.33-30.97-4.11-46.08Z"/>
    <path d="M555.78,335.73c11.53.08,23.08.16,34.64.24,10.5,18.96,9.39,38.47-2.39,57.33,8.71-.07,17.43-.13,26.16-.2-6,10.33-14.62,20.48-22.74,30.33-20.9.21-41.61.42-62.1.64,11.99-13.83,24.95-28.48,30.42-43.41,5.86-14.92,4.23-30.13-3.98-44.93Z"/>
    <path d="M625.6,336.21c11.58.08,23.18.15,34.79.22,7.16,14.48,8.56,29.19,3.47,43.74-4.78,14.55-16.06,28.94-26.94,42.83-12.09.11-24.12.23-36.08.35,11.41-13.87,23.38-28.34,28.44-43.02,5.41-14.67,3.92-29.54-3.68-44.12Z"/>
    <path d="M670.67,336.49c11.61.07,23.24.14,34.88.2,5.37,11.97,7.25,24.07,4.94,36.12.07.04.14.08.21.12,7.08-12.1,9.88-24.2,9.5-36.16,12.74.07,25.49.13,38.25.19-1.55,13.17-6.53,26.49-16.38,39.81,3.63,15.34,1.23,30.49-.29,45.35-13.91.1-27.77.21-41.57.32,3.75-13.06,8.19-26.41,7.91-39.95-.09.04-.18.08-.28.12-4.69,13.52-14.32,26.91-23.66,39.97-12.23.1-24.41.21-36.53.32,10.69-13.89,21.75-28.25,26.43-42.77,4.99-14.52,3.62-29.19-3.4-43.64Z"/>
    <path d="M801.68,337.16c10.74.04,21.49.08,32.24.12,20.02.08,46.49,5.94,46.15,30-1.31,21.61-24.14,30.36-45.34,30.46-.4,0-.8,0-1.2,0-2.88,7.99-6.48,15.95-9.99,23.87-12.53.06-25.04.14-37.51.21,15.99-27.83,26.33-56.41,15.65-84.67ZM840.18,376.3c5.92-.01,9.22-3.17,9.51-7.13.3-3.97-2.64-7.12-8.41-7.12-.31,0-.62,0-.92,0,.03,4.75-.35,9.5-1.11,14.25.31,0,.62,0,.93,0Z"/>
    <path d="M901.2,337.47c11.2.02,22.41.04,33.61.06,14.53,27.93,20.75,55.8,29.45,83.63-13.69.02-27.38.04-41.04.07-.3-3.65-.57-7.31-.84-10.96-6.86.02-13.71.04-20.56.06-2.1,3.66-4.28,7.32-6.47,10.98-12.54.04-25.06.09-37.56.14,22.95-27.91,38.45-56.06,43.4-83.99ZM896.42,318.02c-2.45-8.79,3.38-15.8,14.08-15.77,10.53.03,20,7.08,21.54,15.86,1.58,8.89-4.98,15.82-14.67,15.8-9.8-.02-18.49-6.99-20.95-15.89ZM920.51,389.25c-.4-5.67-.99-11.34-1.87-17.01-.08,0-.15,0-.23,0-1.59,5.68-3.5,11.35-5.7,17.03,2.6,0,5.21-.01,7.81-.02ZM919.36,318.55c-.53-2.54-3.13-4.74-6.11-4.75-2.99,0-4.43,2.18-3.82,4.72.63,2.66,3.03,4.75,5.94,4.75,2.91,0,4.56-2.07,4-4.73Z"/>
    <path d="M1056.71,336.29c9.71-.01,19.51,2.05,24.58,4.82-1.17,10.29-1.54,20.59-.99,30.89-5.94-2.9-13.25-5.33-20.99-5.33-11.77,0-18.09,5.66-17.75,13.39.32,7.74,7.33,13.28,19.53,13.3,8.01.01,15.68-2.29,21.15-5.52,1.29,9.83,3.26,19.65,5.32,29.47-5.3,2.87-16.02,5.16-27.04,5.14-31.52-.05-54.26-18.28-53.74-43.09-.2-24.7,20.43-43.04,49.93-43.08Z"/>
    <path d="M1091.86,337.51c11.72-.02,23.43-.05,35.14-.08-6.57,28-.23,56.11,9.68,83.96-12.6-.05-25.23-.09-37.87-.12-7.12-27.85-11.66-55.83-6.95-83.76Z"/>
    <path d="M1137.37,337.41c11.67-.03,23.33-.07,34.99-.11,18.43-.06,37.95,4.14,37.08,26.86.26,9.17-2.28,15.74-7.4,20.17,9.87,12.59,23.16,25.16,36.95,37.59-13.07-.08-26.18-.16-39.32-.24-8.84-9.18-17.5-18.41-24.8-27.66-.16,0-.32,0-.48,0,3.02,9.23,7.14,18.44,11.16,27.59-12.54-.06-25.1-.12-37.7-.17-10.72-27.84-17.58-56-10.47-84.03ZM1172.31,374.67c5.46.01,7.43-2.91,7.18-6.54-.25-3.63-2.72-6.44-8.04-6.43-.85,0-1.69,0-2.54,0-.04,4.32.25,8.65.85,12.97.85,0,1.7,0,2.55,0Z"/>
    <path d="M1226.12,337.09c11.68-.05,23.34-.1,35-.16-4.73,11.88-6.38,23.85-4.35,35.79.08.04.17.08.25.12,2.68-11.96,8.99-24,18.77-35.98,12.75-.07,25.48-.13,38.21-.21-12.8,13.38-20.78,26.86-23.95,40.19,10.82,15.44,28.9,30.86,47.46,45.82-13.71-.12-27.5-.23-41.33-.34-14.02-13.15-27.79-26.56-36.86-40.02-.07.04-.13.08-.2.12,4.13,13.4,12.61,26.71,20.92,39.78-12.35-.09-24.75-.18-37.18-.26-17.09-27.82-28.18-56.52-16.74-84.85Z"/>
    <path d="M1321.95,336.6c11.63-.07,23.24-.14,34.85-.21-9.56,18.7-8.55,37.8,2.19,56.44,8.76.06,17.5.12,26.24.19,5.9,10.31,14.38,20.45,22.39,30.3-20.98-.21-42.15-.4-63.49-.59-22.51-27.78-37.53-57.32-22.18-86.12Z"/>
    <path d="M1392.04,336.17c20.25-.13,40.45-.27,60.62-.41-5.4,9.89-8.09,19.95-7.36,30-8.58,0-17.16-.02-25.74-.02.11,1.61.3,3.21.57,4.82,6.93.02,13.86.03,20.79.05,1.22,7.12,4.08,14.21,8.17,21.21-6.98-.05-13.96-.1-20.95-.16.96,1.66,1.98,3.32,3.06,4.97,9.23.08,18.44.15,27.64.23,6.17,9.31,14.32,18.42,21.85,27.21-21.01-.22-42.25-.44-63.69-.65-11.49-13.87-23.57-28.36-28.68-43.05-5.46-14.69-3.95-29.59,3.71-44.19Z"/>
    <path d="M1462.87,335.68c10.48-.07,20.95-.15,31.41-.22,1.11,12.69,6.85,25.79,18.39,38.84.07-.04.13-.08.2-.13-3.29-12.98-.85-26.12,6.27-38.89,10.32-.07,20.63-.15,30.93-.22-8.44,15.11-10.14,30.79-4.11,46.08,5.6,15.29,18.95,30.19,30.54,43.93-10.26-.1-20.58-.21-30.97-.32-18.27-11.85-37.9-24.45-52.52-37.29-.06.04-.11.08-.17.12,6.43,12.74,17.69,25.16,27.84,36.9-10.37-.11-20.81-.22-31.3-.33-12.01-13.82-25.04-28.5-30.54-43.45-5.89-14.95-4.25-30.19,4-45.02Z"/>
  </g>
</svg>